<svg xmlns="http://www.w3.org/2000/svg" width="36" height="36" viewBox="0 0 36 36"><path d="M9,42a2.878,2.878,0,0,1-2.1-.9A2.878,2.878,0,0,1,6,39V9a2.878,2.878,0,0,1,.9-2.1A2.878,2.878,0,0,1,9,6H21.45a1.454,1.454,0,0,1,1.5,1.5A1.454,1.454,0,0,1,21.45,9H9V39H39V26.55a1.5,1.5,0,1,1,3,0V39a3.076,3.076,0,0,1-3,3Zm9.05-12.05a1.639,1.639,0,0,1-.425-1.05,1.354,1.354,0,0,1,.425-1.05L36.9,9H27.45a1.454,1.454,0,0,1-1.5-1.5A1.454,1.454,0,0,1,27.45,6H40.5A1.454,1.454,0,0,1,42,7.5V20.55a1.5,1.5,0,1,1-3,0v-9.4L20.15,30a1.388,1.388,0,0,1-1.025.4,1.467,1.467,0,0,1-1.075-.45Z" transform="translate(-6 -6)" fill="#fff"/></svg>