<svg xmlns="http://www.w3.org/2000/svg" width="241.506" height="241.505" viewBox="0 0 241.506 241.505"><g transform="translate(-21049.818 -14378.5)"><path d="M.893,17.867l.015,0A14,14,0,1,1,28.5,14.5q0,.692-.066,1.366l.21,73.18-9.207,1.959Z" transform="translate(21143 14378)" fill="#7856ff"/><path d="M.392,73.138l.015,0A14,14,0,1,0,28,76.505q0-.692-.066-1.366l.21-73.18L18.937,0Z" transform="translate(21197.645 14469.005) rotate(180)" fill="#7856ff"/><g transform="translate(21143.5 14529.5)"><path d="M.392,73.139l.015,0A14,14,0,1,0,28,76.505q0-.692-.066-1.366l.21-73.18L18.937,0Z" transform="translate(0 0)" fill="#7856ff"/><path d="M.392,17.366l.015,0A14,14,0,1,1,28,14q0,.692-.066,1.366l.21,73.18L18.937,90.5Z" transform="translate(54.145 90.505) rotate(180)" fill="#7856ff"/></g><g transform="translate(16453.236 -10723.122) rotate(45)"><path d="M.893,17.867l.015,0A14,14,0,1,1,28.5,14.5q0,.692-.066,1.366l.21,73.18-9.207,1.959Z" transform="translate(21143 14378)" fill="#7856ff"/><path d="M.392,73.138l.015,0A14,14,0,1,0,28,76.505q0-.692-.066-1.366l.21-73.18L18.937,0Z" transform="translate(21197.645 14469.005) rotate(180)" fill="#7856ff"/></g><g transform="translate(21130.041 14501.498) rotate(45)"><path d="M.392,73.139l.015,0A14,14,0,1,0,28,76.505q0-.692-.066-1.366l.21-73.18L18.937,0Z" transform="translate(0 0)" fill="#7856ff"/><path d="M.392,17.366l.015,0A14,14,0,1,1,28,14q0,.692-.066,1.366l.21,73.18L18.937,90.5Z" transform="translate(54.145 90.505) rotate(180)" fill="#7856ff"/></g><g transform="translate(35669.824 -6671.32) rotate(90)"><path d="M.893,17.867l.015,0A14,14,0,1,1,28.5,14.5q0,.692-.066,1.366l.21,73.18-9.207,1.959Z" transform="translate(21143 14378)" fill="#7856ff"/><path d="M.392,73.138l.015,0A14,14,0,1,0,28,76.505q0-.692-.066-1.366l.21-73.18L18.937,0Z" transform="translate(21197.645 14469.005) rotate(180)" fill="#7856ff"/></g><g transform="translate(21140.324 14472.181) rotate(90)"><path d="M.392,73.139l.015,0A14,14,0,1,0,28,76.505q0-.692-.066-1.366l.21-73.18L18.937,0Z" transform="translate(0 0)" fill="#7856ff"/><path d="M.392,17.366l.015,0A14,14,0,1,1,28,14q0,.692-.066,1.366l.21,73.18L18.937,90.5Z" transform="translate(54.145 90.505) rotate(180)" fill="#7856ff"/></g><g transform="translate(46392.945 9781.917) rotate(135)"><path d="M.893,17.867l.015,0A14,14,0,1,1,28.5,14.5q0,.692-.066,1.366l.21,73.18-9.207,1.959Z" transform="translate(21143 14378)" fill="#7856ff"/><path d="M.392,73.138l.015,0A14,14,0,1,0,28,76.505q0-.692-.066-1.366l.21-73.18L18.937,0Z" transform="translate(21197.645 14469.005) rotate(180)" fill="#7856ff"/></g><g transform="translate(21168.326 14458.722) rotate(135)"><path d="M.392,73.139l.015,0A14,14,0,1,0,28,76.505q0-.692-.066-1.366l.21-73.18L18.937,0Z" transform="translate(0 0)" fill="#7856ff"/><path d="M.392,17.366l.015,0A14,14,0,1,1,28,14q0,.692-.066,1.366l.21,73.18L18.937,90.5Z" transform="translate(54.145 90.505) rotate(180)" fill="#7856ff"/></g><circle cx="34.5" cy="34.5" r="34.5" transform="translate(21136 14465)" fill="#1f1f24"/></g></svg>